<svg xmlns="http://www.w3.org/2000/svg" height="512.00091pt" version="1.1" viewBox="0 0 512.00091 512.00091" width="512.00091pt">
<g id="surface1">
<path d="M 247.171875 114.757812 L 256 114.757812 L 256 68.175781 C 253.324219 69.757812 250.28125 70.601562 247.171875 70.621094 Z M 247.171875 114.757812 " style=" stroke:none;fill-rule:nonzero;fill:rgb(100%,65.490196%,20%);fill-opacity:1;" />
<path d="M 247.171875 450.207031 C 250.28125 450.226562 253.324219 451.070312 256 452.652344 L 256 397.242188 L 247.171875 397.242188 Z M 247.171875 450.207031 " style=" stroke:none;fill-rule:nonzero;fill:rgb(100%,65.490196%,20%);fill-opacity:1;" />
<path d="M 256 0 L 256 37.753906 C 264.402344 42.550781 267.324219 53.25 262.527344 61.648438 C 260.972656 64.367188 258.71875 66.621094 256 68.175781 L 256 114.757812 L 282.484375 114.757812 C 303.390625 114.746094 323.222656 124.015625 336.625 140.066406 L 361.933594 114.757812 L 361.933594 97.101562 C 352.179688 97.101562 344.277344 89.199219 344.277344 79.449219 C 344.277344 69.695312 352.179688 61.792969 361.933594 61.792969 C 371.683594 61.792969 379.585938 69.695312 379.585938 79.449219 C 379.585938 89.199219 371.683594 97.101562 361.933594 97.101562 L 361.933594 114.757812 L 336.625 140.066406 C 347.285156 152.753906 353.125 168.804688 353.105469 185.378906 L 432.550781 185.378906 C 432.550781 175.628906 440.457031 167.722656 450.207031 167.722656 C 459.957031 167.722656 467.863281 175.628906 467.863281 185.378906 C 467.863281 195.128906 459.957031 203.035156 450.207031 203.035156 C 440.457031 203.035156 432.550781 195.128906 432.550781 185.378906 L 353.105469 185.378906 C 353.105469 224.382812 321.488281 256 282.484375 256 C 321.488281 256 353.105469 287.617188 353.105469 326.621094 L 432.550781 326.621094 C 432.550781 316.871094 440.457031 308.964844 450.207031 308.964844 C 459.957031 308.964844 467.863281 316.871094 467.863281 326.621094 C 467.863281 336.371094 459.957031 344.277344 450.207031 344.277344 C 440.457031 344.277344 432.550781 336.371094 432.550781 326.621094 L 353.105469 326.621094 C 353.125 343.195312 347.285156 359.242188 336.625 371.933594 L 361.933594 397.242188 L 361.933594 414.894531 C 371.683594 414.894531 379.585938 422.800781 379.585938 432.550781 C 379.585938 442.300781 371.683594 450.207031 361.933594 450.207031 C 352.179688 450.207031 344.277344 442.300781 344.277344 432.550781 C 344.277344 422.800781 352.179688 414.894531 361.933594 414.894531 L 361.933594 397.242188 L 336.625 371.933594 C 323.226562 387.984375 303.390625 397.253906 282.484375 397.242188 L 256 397.242188 L 256 452.652344 C 264.402344 457.449219 267.324219 468.144531 262.527344 476.546875 C 260.972656 479.265625 258.71875 481.519531 256 483.070312 L 256 512 C 397.386719 512 512 397.386719 512 256 C 512 114.613281 397.386719 0 256 0 Z M 256 0 " style=" stroke:none;fill-rule:nonzero;fill:rgb(100%,76.862745%,46.666667%);fill-opacity:1;" />
<path d="M 247.171875 397.242188 L 150.070312 397.242188 C 150.070312 406.992188 142.164062 414.898438 132.414062 414.898438 C 122.664062 414.898438 114.757812 406.992188 114.757812 397.242188 C 114.757812 387.492188 122.664062 379.585938 132.414062 379.585938 C 142.164062 379.585938 150.070312 387.492188 150.070312 397.242188 L 194.207031 397.242188 L 194.207031 282.484375 L 105.929688 282.484375 L 74.277344 314.136719 C 81.167969 321.035156 81.167969 332.214844 74.273438 339.105469 C 67.375 346 56.199219 346 49.304688 339.101562 C 42.410156 332.207031 42.414062 321.027344 49.308594 314.136719 C 52.621094 310.824219 57.109375 308.964844 61.792969 308.964844 C 66.476562 308.960938 70.96875 310.824219 74.277344 314.136719 L 105.929688 282.484375 L 194.207031 282.484375 L 194.207031 229.519531 L 105.929688 229.519531 L 74.277344 197.863281 C 67.378906 204.757812 56.203125 204.753906 49.308594 197.859375 C 42.414062 190.964844 42.414062 179.785156 49.3125 172.890625 C 56.207031 165.996094 67.386719 166 74.28125 172.894531 C 77.589844 176.207031 79.449219 180.695312 79.449219 185.378906 C 79.453125 190.0625 77.589844 194.554688 74.277344 197.863281 L 105.929688 229.519531 L 194.207031 229.519531 L 194.207031 114.757812 L 150.070312 114.757812 C 150.070312 124.507812 142.164062 132.414062 132.414062 132.414062 C 122.664062 132.414062 114.757812 124.507812 114.757812 114.757812 C 114.757812 105.007812 122.664062 97.105469 132.414062 97.105469 C 142.164062 97.105469 150.070312 105.007812 150.070312 114.757812 L 247.171875 114.757812 C 247.171875 114.757812 253.351562 36.246094 256 37.753906 L 256 0 C 114.613281 0 0 114.613281 0 256 C 0 397.386719 114.613281 512 256 512 L 256 483.074219 C 253.394531 484.582031 247.171875 397.242188 247.171875 397.242188 Z M 247.171875 397.242188 " style=" stroke:none;fill-rule:nonzero;fill:rgb(100%,71.372549%,33.333333%);fill-opacity:1;" />
<path d="M 282.484375 256 C 321.488281 255.984375 353.089844 224.355469 353.078125 185.351562 C 353.070312 168.796875 347.246094 152.765625 336.625 140.066406 L 336.507812 140.183594 L 336.625 140.066406 C 323.226562 124.019531 303.390625 114.746094 282.484375 114.757812 L 256 114.757812 L 256 256 Z M 282.484375 256 " style=" stroke:none;fill-rule:nonzero;fill:rgb(100%,76.862745%,46.666667%);fill-opacity:1;" />
<path d="M 194.207031 114.757812 L 194.207031 256 L 256 256 L 256 114.757812 Z M 194.207031 114.757812 " style=" stroke:none;fill-rule:nonzero;fill:rgb(100%,71.372549%,33.333333%);fill-opacity:1;" />
<path d="M 194.207031 256 L 194.207031 397.242188 L 256 397.242188 L 256 256 Z M 194.207031 256 " style=" stroke:none;fill-rule:nonzero;fill:rgb(100%,71.372549%,33.333333%);fill-opacity:1;" />
<path d="M 256 397.242188 L 282.484375 397.242188 C 303.390625 397.253906 323.222656 387.984375 336.625 371.933594 L 336.507812 371.820312 L 336.625 371.933594 C 361.648438 342.019531 357.683594 297.480469 327.769531 272.453125 C 315.070312 261.832031 299.039062 256.007812 282.484375 256 L 256 256 Z M 256 397.242188 " style=" stroke:none;fill-rule:nonzero;fill:rgb(100%,76.862745%,46.666667%);fill-opacity:1;" />
<path d="M 194.207031 406.070312 L 150.070312 406.070312 C 145.195312 406.070312 141.242188 402.117188 141.242188 397.242188 C 141.242188 392.367188 145.195312 388.414062 150.070312 388.414062 L 194.207031 388.414062 C 199.082031 388.414062 203.035156 392.367188 203.035156 397.242188 C 203.035156 402.117188 199.082031 406.070312 194.207031 406.070312 Z M 194.207031 406.070312 " style=" stroke:none;fill-rule:nonzero;fill:rgb(87.843137%,87.843137%,88.627451%);fill-opacity:1;" />
<path d="M 361.933594 423.726562 C 357.054688 423.726562 353.105469 419.773438 353.105469 414.898438 L 353.105469 400.898438 L 330.265625 378.058594 C 326.878906 374.554688 326.976562 368.964844 330.484375 365.578125 C 333.90625 362.273438 339.328125 362.273438 342.75 365.578125 L 368.171875 391 C 369.828125 392.65625 370.757812 394.902344 370.757812 397.242188 L 370.757812 414.898438 C 370.757812 419.773438 366.808594 423.726562 361.933594 423.726562 Z M 361.933594 423.726562 " style=" stroke:none;fill-rule:nonzero;fill:rgb(87.843137%,87.843137%,88.627451%);fill-opacity:1;" />
<path d="M 194.207031 123.585938 L 150.070312 123.585938 C 145.195312 123.585938 141.242188 119.632812 141.242188 114.757812 C 141.242188 109.882812 145.195312 105.929688 150.070312 105.929688 L 194.207031 105.929688 C 199.082031 105.929688 203.035156 109.882812 203.035156 114.757812 C 203.035156 119.632812 199.082031 123.585938 194.207031 123.585938 Z M 194.207031 123.585938 " style=" stroke:none;fill-rule:nonzero;fill:rgb(87.843137%,87.843137%,88.627451%);fill-opacity:1;" />
<path d="M 256 123.585938 C 251.125 123.585938 247.171875 119.632812 247.171875 114.757812 L 247.171875 70.621094 C 247.171875 65.746094 251.125 61.792969 256 61.792969 C 260.875 61.792969 264.828125 65.746094 264.828125 70.621094 L 264.828125 114.757812 C 264.828125 119.632812 260.875 123.585938 256 123.585938 Z M 256 123.585938 " style=" stroke:none;fill-rule:nonzero;fill:rgb(87.843137%,87.843137%,88.627451%);fill-opacity:1;" />
<path d="M 256 459.035156 C 251.125 459.035156 247.171875 455.082031 247.171875 450.207031 L 247.171875 397.242188 C 247.171875 392.367188 251.125 388.414062 256 388.414062 C 260.875 388.414062 264.828125 392.367188 264.828125 397.242188 L 264.828125 450.207031 C 264.828125 455.082031 260.875 459.035156 256 459.035156 Z M 256 459.035156 " style=" stroke:none;fill-rule:nonzero;fill:rgb(87.843137%,87.843137%,88.627451%);fill-opacity:1;" />
<path d="M 432.808594 194.207031 L 353.105469 194.207031 C 348.230469 194.207031 344.277344 190.253906 344.277344 185.378906 C 344.277344 180.503906 348.230469 176.550781 353.105469 176.550781 L 432.808594 176.550781 C 437.683594 176.550781 441.636719 180.503906 441.636719 185.378906 C 441.636719 190.253906 437.683594 194.207031 432.808594 194.207031 Z M 432.808594 194.207031 " style=" stroke:none;fill-rule:nonzero;fill:rgb(87.843137%,87.843137%,88.627451%);fill-opacity:1;" />
<path d="M 432.808594 335.449219 L 353.105469 335.449219 C 348.230469 335.449219 344.277344 331.496094 344.277344 326.621094 C 344.277344 321.746094 348.230469 317.792969 353.105469 317.792969 L 432.808594 317.792969 C 437.683594 317.792969 441.636719 321.746094 441.636719 326.621094 C 441.636719 331.496094 437.683594 335.449219 432.808594 335.449219 Z M 432.808594 335.449219 " style=" stroke:none;fill-rule:nonzero;fill:rgb(87.843137%,87.843137%,88.627451%);fill-opacity:1;" />
<path d="M 194.207031 238.34375 L 105.929688 238.34375 C 103.589844 238.34375 101.34375 237.414062 99.691406 235.757812 L 68 204.066406 C 64.542969 200.621094 64.539062 195.027344 67.984375 191.574219 C 71.433594 188.117188 77.027344 188.113281 80.480469 191.558594 L 109.613281 220.691406 L 194.207031 220.691406 C 199.082031 220.691406 203.035156 224.644531 203.035156 229.519531 C 203.035156 234.394531 199.082031 238.34375 194.207031 238.34375 Z M 194.207031 238.34375 " style=" stroke:none;fill-rule:nonzero;fill:rgb(87.843137%,87.843137%,88.627451%);fill-opacity:1;" />
<path d="M 74.238281 323.003906 C 69.363281 323 65.414062 319.046875 65.414062 314.171875 C 65.414062 311.832031 66.34375 309.589844 68 307.933594 L 99.691406 276.242188 C 101.34375 274.585938 103.589844 273.65625 105.929688 273.65625 L 194.207031 273.65625 C 199.082031 273.65625 203.035156 277.609375 203.035156 282.484375 C 203.035156 287.359375 199.082031 291.3125 194.207031 291.3125 L 109.585938 291.3125 L 80.453125 320.441406 C 78.800781 322.082031 76.570312 323 74.238281 323.003906 Z M 74.238281 323.003906 " style=" stroke:none;fill-rule:nonzero;fill:rgb(87.843137%,87.843137%,88.627451%);fill-opacity:1;" />
<path d="M 336.507812 149.007812 C 331.632812 149.007812 327.679688 145.054688 327.683594 140.179688 C 327.683594 137.839844 328.613281 135.597656 330.265625 133.941406 L 353.101562 111.105469 L 353.101562 97.105469 C 353.101562 92.226562 357.054688 88.277344 361.929688 88.277344 C 366.804688 88.277344 370.757812 92.226562 370.757812 97.105469 L 370.757812 114.757812 C 370.757812 117.101562 369.828125 119.34375 368.171875 121 L 342.75 146.421875 C 341.09375 148.078125 338.847656 149.007812 336.507812 149.007812 Z M 336.507812 149.007812 " style=" stroke:none;fill-rule:nonzero;fill:rgb(87.843137%,87.843137%,88.627451%);fill-opacity:1;" />
<path d="M 450.207031 203.035156 C 459.957031 203.035156 467.863281 195.128906 467.863281 185.378906 C 467.863281 175.628906 459.957031 167.722656 450.207031 167.722656 C 440.457031 167.722656 432.550781 175.628906 432.550781 185.378906 C 432.550781 195.128906 440.457031 203.035156 450.207031 203.035156 Z M 450.207031 203.035156 " style=" stroke:none;fill-rule:nonzero;fill:rgb(100%,59.607843%,6.666667%);fill-opacity:1;" />
<path d="M 450.207031 344.277344 C 459.957031 344.277344 467.863281 336.371094 467.863281 326.621094 C 467.863281 316.871094 459.957031 308.964844 450.207031 308.964844 C 440.457031 308.964844 432.550781 316.871094 432.550781 326.621094 C 432.550781 336.371094 440.457031 344.277344 450.207031 344.277344 Z M 450.207031 344.277344 " style=" stroke:none;fill-rule:nonzero;fill:rgb(100%,59.607843%,6.666667%);fill-opacity:1;" />
<path d="M 264.828125 452.652344 C 256.429688 447.855469 245.730469 450.777344 240.933594 459.175781 C 236.136719 467.574219 239.054688 478.273438 247.457031 483.070312 C 255.855469 487.867188 266.554688 484.945312 271.351562 476.546875 C 272.859375 473.902344 273.65625 470.910156 273.65625 467.863281 C 273.648438 461.578125 270.28125 455.773438 264.828125 452.652344 Z M 264.828125 452.652344 " style=" stroke:none;fill-rule:nonzero;fill:rgb(100%,59.607843%,6.666667%);fill-opacity:1;" />
<path d="M 264.828125 37.753906 C 256.441406 32.78125 245.613281 35.542969 240.636719 43.929688 C 235.660156 52.316406 238.425781 63.144531 246.808594 68.121094 C 252.363281 71.417969 259.273438 71.417969 264.828125 68.121094 C 273.226562 63.328125 276.148438 52.628906 271.355469 44.230469 C 269.800781 41.507812 267.546875 39.253906 264.828125 37.703125 Z M 264.828125 37.753906 " style=" stroke:none;fill-rule:nonzero;fill:rgb(100%,59.607843%,6.666667%);fill-opacity:1;" />
<path d="M 61.792969 167.722656 C 52.042969 167.722656 44.136719 175.625 44.132812 185.375 C 44.132812 195.125 52.035156 203.03125 61.785156 203.035156 C 66.46875 203.035156 70.964844 201.175781 74.277344 197.863281 C 81.167969 190.96875 81.167969 179.789062 74.273438 172.894531 C 70.960938 169.585938 66.472656 167.726562 61.792969 167.722656 Z M 61.792969 167.722656 " style=" stroke:none;fill-rule:nonzero;fill:rgb(100%,59.607843%,6.666667%);fill-opacity:1;" />
<path d="M 44.136719 326.621094 C 44.136719 336.371094 52.039062 344.277344 61.789062 344.28125 C 71.539062 344.28125 79.445312 336.378906 79.449219 326.628906 C 79.449219 321.945312 77.589844 317.449219 74.277344 314.136719 C 67.378906 307.246094 56.203125 307.246094 49.308594 314.140625 C 46 317.453125 44.140625 321.941406 44.136719 326.621094 Z M 44.136719 326.621094 " style=" stroke:none;fill-rule:nonzero;fill:rgb(100%,59.607843%,6.666667%);fill-opacity:1;" />
<path d="M 379.585938 79.449219 C 379.585938 89.199219 371.683594 97.105469 361.933594 97.105469 C 352.179688 97.105469 344.277344 89.199219 344.277344 79.449219 C 344.277344 69.699219 352.179688 61.792969 361.933594 61.792969 C 371.683594 61.792969 379.585938 69.699219 379.585938 79.449219 Z M 379.585938 79.449219 " style=" stroke:none;fill-rule:nonzero;fill:rgb(100%,59.607843%,6.666667%);fill-opacity:1;" />
<path d="M 379.585938 432.550781 C 379.585938 442.304688 371.683594 450.207031 361.933594 450.207031 C 352.179688 450.207031 344.277344 442.304688 344.277344 432.550781 C 344.277344 422.800781 352.179688 414.898438 361.933594 414.898438 C 371.683594 414.898438 379.585938 422.800781 379.585938 432.550781 Z M 379.585938 432.550781 " style=" stroke:none;fill-rule:nonzero;fill:rgb(100%,59.607843%,6.666667%);fill-opacity:1;" />
<path d="M 150.070312 114.757812 C 150.070312 124.507812 142.164062 132.414062 132.414062 132.414062 C 122.664062 132.414062 114.757812 124.507812 114.757812 114.757812 C 114.757812 105.007812 122.664062 97.105469 132.414062 97.105469 C 142.164062 97.105469 150.070312 105.007812 150.070312 114.757812 Z M 150.070312 114.757812 " style=" stroke:none;fill-rule:nonzero;fill:rgb(100%,59.607843%,6.666667%);fill-opacity:1;" />
<path d="M 150.070312 397.242188 C 150.070312 406.992188 142.164062 414.898438 132.414062 414.898438 C 122.664062 414.898438 114.757812 406.992188 114.757812 397.242188 C 114.757812 387.492188 122.664062 379.585938 132.414062 379.585938 C 142.164062 379.585938 150.070312 387.492188 150.070312 397.242188 Z M 150.070312 397.242188 " style=" stroke:none;fill-rule:nonzero;fill:rgb(100%,59.607843%,6.666667%);fill-opacity:1;" />
<path d="M 318.675781 256 C 357.707031 236.019531 373.152344 188.179688 353.171875 149.148438 C 339.589844 122.617188 312.289062 105.925781 282.484375 105.933594 L 194.207031 105.933594 C 189.332031 105.933594 185.378906 109.882812 185.378906 114.757812 L 185.378906 397.242188 C 185.378906 402.117188 189.332031 406.070312 194.207031 406.070312 L 282.484375 406.070312 C 326.332031 406.078125 361.886719 370.539062 361.894531 326.6875 C 361.898438 296.882812 345.207031 269.582031 318.675781 256 Z M 203.035156 123.585938 L 282.484375 123.585938 C 316.609375 123.585938 344.277344 151.25 344.277344 185.378906 C 344.277344 219.507812 316.609375 247.171875 282.484375 247.171875 L 203.035156 247.171875 Z M 282.484375 388.414062 L 203.035156 388.414062 L 203.035156 264.828125 L 282.484375 264.828125 C 316.609375 264.828125 344.277344 292.492188 344.277344 326.621094 C 344.277344 360.75 316.609375 388.414062 282.484375 388.414062 Z M 282.484375 388.414062 " style=" stroke:none;fill-rule:nonzero;fill:rgb(100%,38.431373%,26.27451%);fill-opacity:1;" />
</g>
</svg>